# xmcd CD database file
#
# Track frame offsets:
#	150
#	9977
#	31129
#	44931
#	62933
#	84835
#	97512
#	112664
#	126466
#	140343
#	153095
#	174697
#	194499
#	210551
#	222178
#	247530
#
# Disc length: 3831 seconds
#
# Revision: 6
# Processed by: cddbd v1.5.2PL0 Copyright (c) Steve Scherf et al.
# Submitted via: CDex 1.51
#
DISCID=ca0ef510
DTITLE=Various Artist - Forrest Gump [CD2]
DYEAR=1900
DGENRE=
TTITLE0=Volunteers
TTITLE1=Let's Get Together
TTITLE2=San Francisco (Be Sure To Wear Some Flowers In Your Hair)
TTITLE3=Turn! Turn! Turn! (To Everything There Is A Season)
TTITLE4=Medley: Aquarius - Let The Sunshine In
TTITLE5=Everybody's Talkin'
TTITLE6=Joy To The World
TTITLE7=Stoned Love
TTITLE8=Raindrops Keep Falling On My Head
TTITLE9=Mr. President (Have Pity On The Working Man)
TTITLE10=Sweet Home Alabama
TTITLE11=It Keeps You Runnin'
TTITLE12=I've Got To Use My Imagination
TTITLE13=On The Road Again
TTITLE14=Against The Wind
TTITLE15=Forrest Gump Suite
EXTD=
EXTT0=
EXTT1=
EXTT2=
EXTT3=
EXTT4=
EXTT5=
EXTT6=
EXTT7=
EXTT8=
EXTT9=
EXTT10=
EXTT11=
EXTT12=
EXTT13=
EXTT14=
EXTT15=
PLAYORDER=
